<?xml version="1.0" encoding="UTF-8"?>
<svg width="149" height="48" viewBox="0 0 149 48" xmlns="http://www.w3.org/2000/svg">
  <!-- Transparent background -->

  <!-- Book Icon -->
  <g transform="translate(6,8)" fill="#4f8cff">
    <path d="M2 22 C8 14, 14 8, 20 4 C18 8, 16 12, 14 16 C10 18, 6 20, 2 22 Z"/>
    <path d="M10 22 C16 14, 22 8, 28 4 C26 8, 24 12, 22 16 C18 18, 14 20, 10 22 Z"/>
    <path d="M18 22 C24 14, 30 8, 36 4 C34 8, 32 12, 30 16 C26 18, 22 20, 18 22 Z"/>
    <path d="M2 24 L38 24 L36 28 L4 28 Z"/>
  </g>

  <!-- Text -->
  <text x="54" y="30"
        font-family="Georgia, serif"
        font-size="16"
        font-weight="700"
        fill="#ffffff">
    Reliance
  </text>
  <text x="54" y="44"
        font-family="Georgia, serif"
        font-size="16"
        font-weight="700"
        fill="#ffffff">
    Education
  </text>
</svg>
